<?xml version="1.0" encoding="utf-8"?>
<!-- Generator: Adobe Illustrator 25.2.1, SVG Export Plug-In . SVG Version: 6.00 Build 0)  -->
<svg version="1.1" id="Capa_1" xmlns="http://www.w3.org/2000/svg" xmlns:xlink="http://www.w3.org/1999/xlink" x="0px" y="0px"
	 viewBox="0 0 1213.52 404.52" style="enable-background:new 0 0 1213.52 404.52;" xml:space="preserve">
<style type="text/css">
	.st0{fill:#EC6B1C;}
	.st1{clip-path:url(#SVGID_1_);fill:#FFFFFF;}
</style>
<rect class="st0" width="1213.52" height="404.52"/>
<g>
	<defs>
		<rect id="SVGID_3_" x="-0.02" width="1213.56" height="404.52"/>
	</defs>
	<clipPath id="SVGID_1_">
		<use xlink:href="#SVGID_3_"  style="overflow:visible;"/>
	</clipPath>
	<path class="st1" d="M528.67,136.33c-17.92,0-38.31,8.31-50.77,24.95l0.01-0.03l-0.01,0.02l0.01-22.32h-42.75v155.69h42.74v-88.58
		c0-15.94,12.36-32.89,35.25-32.89c17.7,0,36,12.3,36,32.89v88.58h42.75v-96.51C591.9,162.32,566.28,136.33,528.67,136.33"/>
	<polygon class="st1" points="895.75,138.95 857.1,245 818.45,138.95 769.61,138.95 833.68,294.59 880.52,294.59 944.58,138.95 	"/>
	<path class="st1" d="M389.66,246.77c-17.99,13.31-28.28,16.49-44.68,16.49c-14.77,0-26.32-4.58-34.48-12.63l109.3-45.34
		c-2.38-16.9-8.8-31.99-18.67-43.47c-14.36-16.68-35.61-25.51-61.49-25.51c-47.01,0-82.47,34.69-82.47,80.48
		c0,46.99,35.53,80.48,87.17,80.48c28.93,0,58.51-13.71,72.34-29.74L389.66,246.77z M307.53,185.85
		c7.28-9.78,18.88-15.51,32.88-15.51c15.41,0,27.1,8.8,33.14,21.78l-74.69,30.99C296.82,207.21,300.88,194.77,307.53,185.85"/>
	<polygon class="st1" points="253.11,255.38 155.94,255.38 155.94,92.39 112.61,92.39 112.61,294.64 253.11,294.64 	"/>
	<path class="st1" d="M1021.35,297.26c-46.76,0-83.39-34.83-83.39-80.47c0-45.12,36.88-80.47,83.96-80.47
		c46.75,0,83.38,34.83,83.38,80.47C1105.3,261.9,1068.43,297.26,1021.35,297.26 M1021.35,172.96c-23.87,0-41.2,18.09-41.2,43.83
		c0,24.58,18.36,43.83,41.78,43.83c23.87,0,41.2-18.59,41.2-43.83C1063.13,192.21,1044.78,172.96,1021.35,172.96"/>
	<path class="st1" d="M692.2,297.26c-46.76,0-83.39-34.83-83.39-80.47c0-45.12,36.88-80.47,83.96-80.47
		c46.75,0,83.38,34.83,83.38,80.47C776.15,261.9,739.28,297.26,692.2,297.26 M692.2,172.96c-23.87,0-41.2,18.09-41.2,43.83
		c0,24.58,18.36,43.83,41.78,43.83c23.87,0,41.21-18.59,41.21-43.83C733.99,192.21,715.63,172.96,692.2,172.96"/>
	<path class="st1" d="M1111.14,276.15h-6.91v-3.93h18.12v3.93h-6.92v18.48h-4.3V276.15z M1127.15,272.22h4.58l6.78,10.63l6.76-10.63
		h4.44v22.41h-4.14v-15.94l-6.92,10.77h-0.44l-6.91-10.77v15.94h-4.15V272.22z"/>
</g>
</svg>
